<svg width="142" height="68" viewBox="0 0 142 68" fill="none" xmlns="http://www.w3.org/2000/svg">
<path d="M70.86 0C67.83 0 64.89 0.39 62.1 1.16C50.49 4.26 41.35 13.4 38.25 25.01C37.48 27.8 37.09 30.74 37.09 33.77C37.09 46.26 43.88 57.18 53.96 63.01C51.06 58.04 49.41 52.26 49.41 46.1C49.41 44.88 49.47 43.67 49.61 42.49C51.27 26.73 63.8 14.2 79.56 12.54C80.74 12.4 81.95 12.34 83.17 12.34C89.33 12.34 95.11 13.99 100.08 16.89C94.27 6.79 83.35 0 70.86 0Z" fill="#045599"/>
<path d="M103.48 25.01C100.81 35.01 93.65 43.18 84.3 47.23C80.18 49.03 75.64 50.02 70.86 50.02C62.81 50.02 55.41 47.2 49.62 42.48C49.48 43.66 49.42 44.87 49.42 46.09C49.42 52.25 51.07 58.03 53.97 63C56.5 64.48 59.22 65.62 62.11 66.39C64.9 67.16 67.84 67.55 70.87 67.55C89.53 67.55 104.65 52.42 104.65 33.77C104.64 30.74 104.25 27.8 103.48 25.01Z" fill="#4478BB"/>
<path d="M103.48 25.0101C100.81 35.0101 93.65 43.1801 84.3 47.2301C86.11 43.1101 87.1 38.5501 87.1 33.7701C87.1 25.7201 84.28 18.3301 79.57 12.5301C80.75 12.3901 81.96 12.3301 83.18 12.3301C89.34 12.3301 95.12 13.9801 100.09 16.8801C101.58 19.4001 102.72 22.1301 103.48 25.0101Z" fill="#F48020"/>
<path d="M27.99 33.7801C27.99 25.4601 30.37 17.6901 34.47 11.1201C17.62 19.7601 6.38 31.4301 0 39.2801C4.02 44.8401 11.03 53.0201 21.98 59.3801C29.4 63.6901 37.03 66.2101 44.46 67.5401C34.44 59.6901 27.99 47.4901 27.99 33.7801Z" fill="#02519E"/>
<path d="M141.73 28.27C137.71 22.71 130.7 14.53 119.75 8.18002C112.33 3.87002 104.7 1.35002 97.27 0.0200195C107.29 7.87002 113.74 20.07 113.74 33.78C113.74 42.1 111.36 49.87 107.26 56.44C124.11 47.8 135.35 36.12 141.73 28.27Z" fill="#F48020"/>
</svg>
