<svg width="42" height="42" viewBox="0 0 42 42" fill="none" xmlns="http://www.w3.org/2000/svg">
<circle cx="21" cy="21" r="18" fill="white"/>
<path d="M21 0C9.40184 0 0 9.40184 0 21C0 32.5982 9.40184 42 21 42C32.5982 42 42 32.5982 42 21C42 9.40184 32.5982 0 21 0ZM27.0552 25.267H22.3384V27.7155H25.1365C23.5061 29.5852 21.6429 31.2483 19.5851 32.6528C18.1623 31.6822 16.8323 30.586 15.6055 29.3836V20.9826H29.546C28.836 22.4849 28.0005 23.9172 27.0552 25.267ZM30.5741 18.5341H11.4497C10.7845 16.7091 10.2935 14.7993 10.0021 12.8214H32.0208C31.7299 14.7953 31.2409 16.7067 30.5741 18.5341Z" fill="#F48020"/>
<circle cx="21" cy="21" r="21" fill="#1B3045"/>
<path d="M19.1854 14.402L19.1854 14.402L19.1867 14.4017C19.7631 14.2348 20.3714 14.15 20.9992 14.15C23.3922 14.15 25.5098 15.4135 26.7675 17.3461C25.8109 16.8608 24.7375 16.5902 23.6048 16.5902C23.3419 16.5902 23.0798 16.6037 22.8232 16.6356C19.4129 17.013 16.7103 19.855 16.352 23.4193C16.3217 23.6876 16.3088 23.9617 16.3088 24.2369C16.3088 25.4237 16.5669 26.5488 17.0303 27.5519C15.2026 26.2288 14.0011 24.0109 14.0011 21.4989C14.0011 20.8383 14.0821 20.1983 14.2417 19.5918L14.2417 19.5918L14.242 19.5907C14.8856 17.0619 16.7822 15.0752 19.1854 14.402Z" fill="white" stroke="#1B3045" stroke-width="0.3"/>
<path d="M19.1883 28.5984L19.1869 28.598C18.6016 28.4344 18.0499 28.1938 17.5356 27.8823C16.9459 26.8086 16.6104 25.5626 16.6104 24.2347C16.6104 24.0644 16.6156 23.8955 16.6268 23.7291C17.8429 24.6894 19.3582 25.2574 20.9987 25.2574C22.0324 25.2574 23.0146 25.0327 23.9058 24.6243C25.7567 23.7832 27.2082 22.1602 27.8822 20.1552C27.9599 20.5904 27.9995 21.0399 28.001 21.4994C28.0007 25.5646 24.8608 28.85 21.0008 28.85C20.373 28.85 19.7647 28.7653 19.1883 28.5984Z" fill="white" stroke="#1B3045" stroke-width="0.3"/>
<path d="M27.749 19.5533C27.221 21.5849 25.8814 23.2637 24.1229 24.1845C24.4241 23.3487 24.5866 22.4423 24.5866 21.4987C24.5866 19.7752 24.042 18.1844 23.1217 16.9052C23.2814 16.8932 23.4434 16.8878 23.6069 16.8878C24.8685 16.8878 26.0529 17.2384 27.0746 17.8558C27.368 18.3833 27.5947 18.9529 27.749 19.5533Z" fill="#F48020" stroke="#1B3045" stroke-width="0.3"/>
<path d="M11.9246 21.5011C11.9246 19.6535 12.4284 17.9282 13.2963 16.4692C9.72963 18.3878 7.35046 20.9792 6 22.7224C6.85091 23.957 8.33472 25.7735 10.6525 27.1857C12.2231 28.1428 13.8381 28.7024 15.4109 28.9977C13.2899 27.2546 11.9246 24.5455 11.9246 21.5011Z" fill="white"/>
<path d="M36.0002 20.2775C35.1493 19.0429 33.6655 17.2265 31.3477 15.8164C29.7771 14.8593 28.1621 14.2997 26.5894 14.0044C28.7103 15.7475 30.0756 18.4567 30.0756 21.5011C30.0756 23.3486 29.5718 25.074 28.7039 26.5329C32.2706 24.6143 34.6498 22.0207 36.0002 20.2775Z" fill="#F48020"/>
</svg>
